<?xml version="1.0" encoding="utf-8"?>
<!-- Generator: Adobe Illustrator 19.1.0, SVG Export Plug-In . SVG Version: 6.00 Build 0)  -->
<svg version="1.1" id="Layer_1" xmlns="http://www.w3.org/2000/svg" xmlns:xlink="http://www.w3.org/1999/xlink" x="0px" y="0px"
	 viewBox="0 0 194.9 349.4" style="enable-background:new 0 0 194.9 349.4;" xml:space="preserve">
<style type="text/css">
	.st0{fill:#E0E1E0;}
	.st1{fill:#FDD39F;}
	.st2{fill:#EAC192;}
	.st3{fill:#010101;}
	.st4{fill:#221F1F;}
	.st5{fill:#6094CE;}
	.st6{fill:#C9D3D2;}
	.st7{fill:#AFB8B7;}
	.st8{fill:#335D80;}
	.st9{fill:none;stroke:#FFFFFF;stroke-miterlimit:10;}
	.st10{fill:#294C60;}
	.st11{fill:none;stroke:#294C60;stroke-width:0.25;stroke-miterlimit:10;}
	.st12{fill:none;stroke:#939E9D;stroke-width:0.5;stroke-miterlimit:10;}
</style>
<g>
	<g>
		<path class="st0" d="M59.4,133L0,112.8c0,0,5.9,68.5,5.2,74.5l45.8,19.4C50.9,206.7,56.1,133.8,59.4,133z"/>
		<path class="st1" d="M44.1,117.5l-11.2,5.8c0,0-4.5-7-4.1,8.2l-16.8-7.8l6.8-7.2h7.4l9.4-10.6L44.1,117.5z"/>
	</g>
	<g>
		<polygon class="st2" points="133.1,53.2 136.8,69 125.4,103.3 114.1,76.6 119.6,48.4 		"/>
		<polygon class="st3" points="137.4,41.7 145.5,14.7 138.6,6.2 133.2,0 129,0 127.1,1.3 124.7,0.8 120.1,3.4 105.5,2.1 113.2,13.4 
			111.3,22.6 113.7,27.8 		"/>
		<path class="st1" d="M118.8,9h18v21c0,0,0.3-16.4,3.8-4.2l-2,8.3l-1.8,4.2l-3.6,16.2l-3.3,4.8h-8.8l-2.3-5.2l-2.6-17.6l-2.3-2.2
			c0,0-2.8-18.7,2.5-9.7l1.3,5.2V9H118.8z"/>
	</g>
	<path class="st4" d="M156.5,321.3l-7.4-2.2c-0.4-0.1-0.8,0-1.1,0.2l-29,20.7c-0.4,0.3-0.2,3.1,0,3.6l12,5c0.3,0.7,1.2,1,1.8,0.5
		l24.6-14.9c0.2-0.2-0.1,0.2,0,0l0-11.5C157.5,322.2,157.2,321.5,156.5,321.3z"/>
	<path class="st4" d="M98,312.3v5.5c0,0.4-0.2,0.8-0.6,1l-24.3,15.4c-0.5,0.3-1.2,0.2-1.6-0.3l-8.1-10.7c-0.4-0.6-0.3-1.4,0.4-1.8
		L83.7,310c0.4-0.2,0.9-0.2,1.3,0.1c1.7,1.2,6.9,4.3,11.2,1.3C96.9,310.8,98,311.4,98,312.3z"/>
	<polygon class="st5" points="164.5,183.6 161.3,328.8 141,322.3 129.1,213.5 115,209 98.9,316.3 82.3,311.1 82.3,183.6 	"/>
	<polygon class="st6" points="147.7,66.8 134.5,66.4 127,73.8 124.7,99.1 123.4,71.7 102.7,66 119.6,151.3 	"/>
	<polygon class="st7" points="123.4,72 115,89.9 105.9,66.8 110.9,57.7 	"/>
	<path class="st8" d="M35.9,124.1l53.6-20.8L76.8,189l46.6,1.9l1.3,5.8l44.1,3.8l-0.2-39.8l26.3-37.4l-49-56.7l-22.5,62.2L104,64.3
		l-81.6,48.9L35.9,124.1z M161.3,114.6l7.5,9.5l-5.2,9.5L161.3,114.6z"/>
	<polygon class="st7" points="141.8,57.7 147.7,66.8 133.6,89.9 127,73.8 	"/>
	<path class="st9" d="M124.7,186.7"/>
	<path class="st9" d="M124.7,146.1"/>
	<circle class="st10" cx="119.7" cy="154.8" r="1.7"/>
	<circle class="st10" cx="119.7" cy="165.2" r="1.7"/>
	<circle class="st10" cx="119.7" cy="176.8" r="1.7"/>
	<polyline class="st11" points="156,78.1 146.2,108.6 142.3,107.1 144.9,114.7 124.4,143.7 105.9,113.6 109,109.7 104.8,109.7 
		94.2,70.1 	"/>
	<line class="st11" x1="124.3" y1="143.5" x2="124.3" y2="193.4"/>
	<line class="st11" x1="126.3" y1="142.2" x2="126.3" y2="197"/>
	<line class="st11" x1="128.1" y1="139.1" x2="128.1" y2="197"/>
	<line class="st11" x1="129.8" y1="136.1" x2="129.8" y2="197"/>
	<polyline class="st12" points="147.7,66.8 133.6,89.9 127,74.7 124.7,99.1 123.1,72.8 115,89.9 105.9,66.8 	"/>
</g>
</svg>
