<?xml version="1.0" encoding="utf-8"?>
<!-- Generator: Adobe Illustrator 19.1.0, SVG Export Plug-In . SVG Version: 6.00 Build 0)  -->
<svg version="1.1" id="Layer_1" xmlns="http://www.w3.org/2000/svg" xmlns:xlink="http://www.w3.org/1999/xlink" x="0px" y="0px"
	 viewBox="0 0 90 90" style="enable-background:new 0 0 90 90;" xml:space="preserve">
<style type="text/css">
	.st0{display:none;}
	.st1{display:inline;fill:#FFFFFF;}
	.st2{fill:#FFFFFF;}
</style>
<g class="st0">
	<rect x="26" y="81" class="st1" width="30" height="9"/>
	<path class="st1" d="M18.7,53.8C24.9,59.9,32.9,63,41,63c7.6,0,15.2-2.7,21.2-8.2l0,0l2.1-2.1l0,0c11.3-12.4,10.9-31.5-1-43.5
		C57.1,3.1,49.1,0,41,0c-7.6,0-15.2,2.7-21.2,8.2l0,0l-2.1,2.1l0,0C6.4,22.7,6.8,41.8,18.7,53.8z M41,3c7.6,0,14.8,3,20.2,8.3
		c10.8,10.8,11.1,28,1,39.2L21.9,10.3C27.2,5.6,33.9,3,41,3z M60.1,52.7C54.8,57.4,48.1,60,41,60c-7.6,0-14.8-3-20.2-8.3
		c-10.8-10.8-11.1-28-1-39.2L60.1,52.7z"/>
	<path class="st1" d="M71.8,0.7L67.5,5c7.1,7.1,11,16.5,11,26.5s-3.9,19.4-11,26.5C60.4,65.1,51,69,41,69s-19.4-3.9-26.5-11
		l-4.2,4.2C18.5,70.5,29.4,75,41,75s22.5-4.5,30.8-12.7C80,54,84.5,43.1,84.5,31.5S80,9,71.8,0.7z"/>
</g>
<g>
	<path class="st2" d="M59.4,16.1l-29.3-5.8L0.8,16.1v52.5v8.8v2.9l29.3-5.8l29.3,5.8l29.3-5.8v-2.9v-8.7V10.3L59.4,16.1z M58,68.3
		l-26.4-5.2V13.6L58,18.8V68.3z M3.7,18.5l24.9-5v49.5L3.7,68V18.5z M60.9,68.3V18.8l24.9-5v49.5L60.9,68.3z"/>
	<g>
		<polygon class="st2" points="57.9,54.5 29.1,32.6 10.4,39.5 9.6,37.5 29.5,30.1 58,51.8 77.9,37.6 79.2,39.4 		"/>
		<ellipse class="st2" cx="11.5" cy="37.9" rx="4.4" ry="4.4"/>
		<ellipse class="st2" cx="44.5" cy="43" rx="4.4" ry="4.4"/>
		<ellipse class="st2" cx="77.5" cy="38.6" rx="4.4" ry="4.4"/>
	</g>
</g>
</svg>
