<?xml version="1.0" encoding="utf-8"?>
<!-- Generator: Adobe Illustrator 19.1.0, SVG Export Plug-In . SVG Version: 6.00 Build 0)  -->
<svg version="1.1" id="Layer_1" xmlns="http://www.w3.org/2000/svg" xmlns:xlink="http://www.w3.org/1999/xlink" x="0px" y="0px"
	 viewBox="0 0 90 90" style="enable-background:new 0 0 90 90;" xml:space="preserve">
<style type="text/css">
	.st0{fill:#FFFFFF;}
</style>
<g>
	<rect x="26" y="81" class="st0" width="30" height="9"/>
	<path class="st0" d="M18.7,53.8C24.9,59.9,32.9,63,41,63c7.6,0,15.2-2.7,21.2-8.2l0,0l2.1-2.1l0,0c11.3-12.4,10.9-31.5-1-43.5
		C57.1,3.1,49.1,0,41,0c-7.6,0-15.2,2.7-21.2,8.2l0,0l-2.1,2.1l0,0C6.4,22.7,6.8,41.8,18.7,53.8z M41,3c7.6,0,14.8,3,20.2,8.3
		c10.8,10.8,11.1,28,1,39.2L21.9,10.3C27.2,5.6,33.9,3,41,3z M60.1,52.7C54.8,57.4,48.1,60,41,60c-7.6,0-14.8-3-20.2-8.3
		c-10.8-10.8-11.1-28-1-39.2L60.1,52.7z"/>
	<path class="st0" d="M71.8,0.7L67.5,5c7.1,7.1,11,16.5,11,26.5s-3.9,19.4-11,26.5C60.4,65.1,51,69,41,69s-19.4-3.9-26.5-11
		l-4.2,4.2C18.5,70.5,29.4,75,41,75s22.5-4.5,30.8-12.7C80,54,84.5,43.1,84.5,31.5S80,9,71.8,0.7z"/>
</g>
</svg>
