<?xml version="1.0" encoding="utf-8"?>
<!-- Generator: Adobe Illustrator 19.1.0, SVG Export Plug-In . SVG Version: 6.00 Build 0)  -->
<svg version="1.1" id="Layer_1" xmlns="http://www.w3.org/2000/svg" xmlns:xlink="http://www.w3.org/1999/xlink" x="0px" y="0px"
	 viewBox="-261.4 384.2 73 73" style="enable-background:new -261.4 384.2 73 73;" xml:space="preserve">
<style type="text/css">
	.st0{fill:#5A6464;}
</style>
<g id="Ebene_2">
</g>
<g id="Ebene_3">
</g>
<g id="Ebene_1">
	<g>
		<polygon class="st0" points="-250,415.9 -224,415.9 -224,427.9 -222,427.9 -222,415.9 -198,415.9 -198,428.9 -196,428.9 
			-196,413.9 -252,413.9 -252,428.9 -250,428.9 		"/>
		<path class="st0" d="M-224.2,402.4c4.2,0,7.5-3.4,7.5-7.5c0-4.2-3.4-7.5-7.5-7.5c-4.2,0-7.5,3.4-7.5,7.5
			C-231.8,399.1-228.4,402.4-224.2,402.4z M-224.2,388.9c3.3,0,6,2.7,6,6s-2.7,6-6,6c-3.3,0-6-2.7-6-6S-227.6,388.9-224.2,388.9z"/>
		<path class="st0" d="M-215,407c0-1.7-1.6-3.1-3.2-3.1h-12c-1.7,0-2.7,1.4-2.7,3.1v2.9h18L-215,407L-215,407z"/>
		<path class="st0" d="M-251.2,448.1c4.2,0,7.5-3.4,7.5-7.5c0-4.2-3.4-7.5-7.5-7.5c-4.1,0-7.5,3.3-7.5,7.4
			C-258.7,444.7-255.3,448.1-251.2,448.1z M-251.2,434.5c3.3,0,6,2.7,6,6s-2.7,6-6,6c-3.3,0-6-2.7-6-6S-254.5,434.5-251.2,434.5z"/>
		<path class="st0" d="M-245.1,448.9h-12c-1.7,0-2.8,2-2.8,3.7v2.3h18v-2.3C-242,450.9-243.5,448.9-245.1,448.9z"/>
		<path class="st0" d="M-231.8,440.5c0,4.2,3.4,7.5,7.5,7.5c4.2,0,7.5-3.4,7.5-7.5c0-4.2-3.4-7.5-7.5-7.5
			C-228.4,433-231.8,436.4-231.8,440.5z M-218.2,440.5c0,3.3-2.7,6-6,6c-3.3,0-6-2.7-6-6s2.7-6,6-6
			C-220.9,434.5-218.2,437.2-218.2,440.5z"/>
		<path class="st0" d="M-218.2,448.9h-12c-1.7,0-2.7,2-2.7,3.7v2.3h18v-2.3C-215,450.9-216.6,448.9-218.2,448.9z"/>
		<path class="st0" d="M-204.8,440.5c0,4.2,3.4,7.5,7.5,7.5c4.2,0,7.5-3.4,7.5-7.5c0-4.2-3.4-7.5-7.5-7.5
			C-201.5,433-204.8,436.4-204.8,440.5z M-191.3,440.5c0,3.3-2.7,6-6,6c-3.3,0-6-2.7-6-6s2.7-6,6-6
			C-194,434.5-191.3,437.2-191.3,440.5z"/>
		<path class="st0" d="M-191.3,448.9h-12c-1.7,0-2.7,2-2.7,3.7v2.3h18v-2.3C-188,450.9-189.6,448.9-191.3,448.9z"/>
	</g>
</g>
<g id="Ebene_4">
</g>
<g id="Ebene_5">
</g>
<g id="Ebene_6">
</g>
</svg>
