<?xml version="1.0" encoding="utf-8"?>
<!-- Generator: Adobe Illustrator 19.1.0, SVG Export Plug-In . SVG Version: 6.00 Build 0)  -->
<svg version="1.1" xmlns="http://www.w3.org/2000/svg" xmlns:xlink="http://www.w3.org/1999/xlink" x="0px" y="0px"
	 viewBox="0 0 72.3 68.4" style="enable-background:new 0 0 72.3 68.4;" xml:space="preserve">
<style type="text/css">
	.st0{fill:#00B4A0;stroke:#00B4A0;stroke-miterlimit:10;}
	.st1{fill:#FFFFFF;stroke:#152935;stroke-miterlimit:10;}
	.st2{fill:#FFFFFF;stroke:#00B4A0;stroke-width:4;stroke-miterlimit:10;}
	.st3{fill:#3C4646;}
	.st4{fill:#323C3C;}
	.st5{fill:#00B4A0;}
	.st6{fill:none;stroke:#00B4A0;stroke-miterlimit:10;}
	.st7{fill:#FFFFFF;}
	.st8{fill:#FFFFFF;stroke:#FFFFFF;stroke-width:3;stroke-miterlimit:10;}
	.st9{fill:#5A6464;}
	.st10{clip-path:url(#SVGID_2_);}
	.st11{fill:none;stroke:#AEB8B8;stroke-width:7;stroke-miterlimit:10;}
	.st12{fill:none;stroke:#00B4A0;stroke-width:7;stroke-miterlimit:10;}
	.st13{clip-path:url(#SVGID_4_);}
	.st14{fill:#FFFFFF;stroke:#5A6464;stroke-width:4;stroke-miterlimit:10;}
	.st15{fill:none;stroke:#5A6464;stroke-miterlimit:10;}
	.st16{fill:#C8D2D2;}
	.st17{fill:#ECECEC;}
	.st18{fill:#5596E6;}
	.st19{fill:none;stroke:#AEB8B8;stroke-miterlimit:10;}
	.st20{opacity:0.5;fill:#5A6464;}
	.st21{fill:#DFE9E9;}
	.st22{opacity:0.8;fill:#FFFFFF;}
	.st23{opacity:0.7;fill:#FFFFFF;}
	.st24{opacity:0.7;fill:#C8D2D2;}
	.st25{opacity:0.4;fill:#FFFFFF;}
	.st26{opacity:0.5;fill:#FFFFFF;}
	.st27{opacity:0.6;fill:#959F9F;}
	.st28{opacity:0.3;fill:#FFFFFF;}
	.st29{opacity:0.5;fill:#AEB8B8;}
	.st30{opacity:0.4;fill:#C8D2D2;}
	.st31{fill:#AEB8B8;}
	.st32{opacity:0.5;fill:#DFE9E9;}
	.st33{opacity:0.8;fill:#5A6464;}
	.st34{opacity:0.3;fill:#5A6464;}
	.st35{fill:none;}
	.st36{opacity:0.6;}
	.st37{opacity:0.7;fill:#DFE9E9;}
	.st38{opacity:0.4;fill:#5A6464;}
	.st39{fill:#FFFFFF;stroke:#000000;stroke-miterlimit:10;}
	.st40{fill:none;stroke:#000000;stroke-miterlimit:10;}
	.st41{fill:#D9B488;}
	.st42{fill:#FFD4A0;}
	.st43{fill:#F2EEEE;}
	.st44{fill:#7CC7FF;}
	.st45{fill:#959F9F;}
	.st46{fill:#41D6C3;}
	.st47{fill:#FDE876;}
	.st48{fill:none;stroke:#323232;stroke-miterlimit:10;}
	.st49{fill:#FF894D;}
	.st50{fill:#574A00;}
	.st51{fill:#5A6464;stroke:#0D1111;stroke-miterlimit:10;}
	.st52{fill:none;stroke:#959F9F;stroke-width:2;stroke-miterlimit:10;}
	.st53{fill:#FFA573;}
	.st54{clip-path:url(#SVGID_6_);}
	.st55{fill:none;stroke:#3C4646;stroke-width:7;stroke-miterlimit:10;}
	.st56{fill:#E3E6E8;stroke:#F2EEEE;stroke-miterlimit:10;}
	.st57{clip-path:url(#SVGID_8_);}
	.st58{opacity:0.6;fill:#FFFFFF;}
	.st59{fill:#5A6464;stroke:#FFFFFF;stroke-miterlimit:10;}
	.st60{fill:#FFFFFF;stroke:#FFFFFF;stroke-miterlimit:10;}
	.st61{fill:#6D7777;}
	.st62{fill:#FFFFFF;stroke:#00B4A0;stroke-width:2;stroke-miterlimit:10;}
	.st63{fill:#FFFFFF;stroke:#C8D2D2;stroke-width:2;stroke-miterlimit:10;}
	.st64{opacity:0.8;fill:#FFA573;}
	.st65{fill:none;stroke:#FFFFFF;stroke-width:2;stroke-miterlimit:10;}
	.st66{clip-path:url(#SVGID_10_);}
	.st67{fill:#0D1111;}
	.st68{fill:#F0F2F4;}
	.st69{fill:none;stroke:#DFE9E9;stroke-miterlimit:10;}
	.st70{clip-path:url(#SVGID_18_);}
	.st71{opacity:0.6;fill:#DFE9E9;}
	.st72{fill:none;stroke:#00B4A0;stroke-width:2;stroke-miterlimit:10;}
	.st73{clip-path:url(#SVGID_20_);}
	.st74{fill:none;stroke:#6D7777;stroke-miterlimit:10;}
</style>
<g id="Ebene_2">
</g>
<g id="Ebene_3">
</g>
<g id="Ebene_1">
	<g>
		<polygon class="st9" points="11,29.4 37,29.4 37,41.4 39,41.4 39,29.4 63,29.4 63,42.4 65,42.4 65,27.4 9,27.4 9,42.4 11,42.4 		
			"/>
		<path class="st9" d="M36.8,15.9c4.2,0,7.5-3.4,7.5-7.5c0-4.2-3.4-7.5-7.5-7.5c-4.2,0-7.5,3.4-7.5,7.5
			C29.2,12.6,32.6,15.9,36.8,15.9z M36.8,2.4c3.3,0,6,2.7,6,6s-2.7,6-6,6c-3.3,0-6-2.7-6-6S33.4,2.4,36.8,2.4z"/>
		<path class="st9" d="M46,20.5c0-1.7-1.6-3.1-3.2-3.1h-12c-1.7,0-2.7,1.4-2.7,3.1v2.9h18V20.5z"/>
		<path class="st9" d="M9.8,61.6c4.2,0,7.5-3.4,7.5-7.5c0-4.2-3.4-7.5-7.5-7.5S2.3,49.9,2.3,54C2.3,58.2,5.7,61.6,9.8,61.6z M9.8,48
			c3.3,0,6,2.7,6,6c0,3.3-2.7,6-6,6s-6-2.7-6-6C3.8,50.7,6.5,48,9.8,48z"/>
		<path class="st9" d="M15.9,62.4h-12c-1.7,0-2.8,2-2.8,3.7v2.3h18v-2.3C19,64.4,17.5,62.4,15.9,62.4z"/>
		<path class="st9" d="M29.2,54c0,4.2,3.4,7.5,7.5,7.5c4.2,0,7.5-3.4,7.5-7.5c0-4.2-3.4-7.5-7.5-7.5C32.6,46.5,29.2,49.9,29.2,54z
			 M42.8,54c0,3.3-2.7,6-6,6c-3.3,0-6-2.7-6-6c0-3.3,2.7-6,6-6C40.1,48,42.8,50.7,42.8,54z"/>
		<path class="st9" d="M42.8,62.4h-12c-1.7,0-2.7,2-2.7,3.7v2.3h18v-2.3C46,64.4,44.4,62.4,42.8,62.4z"/>
		<path class="st9" d="M56.2,54c0,4.2,3.4,7.5,7.5,7.5c4.2,0,7.5-3.4,7.5-7.5c0-4.2-3.4-7.5-7.5-7.5C59.5,46.5,56.2,49.9,56.2,54z
			 M69.7,54c0,3.3-2.7,6-6,6c-3.3,0-6-2.7-6-6c0-3.3,2.7-6,6-6C67,48,69.7,50.7,69.7,54z"/>
		<path class="st9" d="M69.7,62.4h-12c-1.7,0-2.7,2-2.7,3.7v2.3h18v-2.3C73,64.4,71.4,62.4,69.7,62.4z"/>
	</g>
</g>
<g id="Ebene_4">
</g>
<g id="Ebene_5">
</g>
<g id="Ebene_6">
</g>
</svg>
