<?xml version="1.0" encoding="utf-8"?>
<!-- Generator: Adobe Illustrator 19.1.0, SVG Export Plug-In . SVG Version: 6.00 Build 0)  -->
<svg version="1.1" id="Layer_1" xmlns="http://www.w3.org/2000/svg" xmlns:xlink="http://www.w3.org/1999/xlink" x="0px" y="0px"
	 viewBox="-263.5 384.5 73 73" style="enable-background:new -263.5 384.5 73 73;" xml:space="preserve">
<style type="text/css">
	.st0{fill:#5A6464;}
</style>
<g id="Ebene_2">
</g>
<g id="Ebene_3">
</g>
<g id="Ebene_1">
	<g>
		<path class="st0" d="M-198.7,386.9l-8.3,3l0.9,2.6l-32,11.6l0.7,2.1l-20,7.1l1,2.8l-5.3,1.9l1.1,3l5.3-1.9l1.2,3.4l20.1-7.3
			l0.9,2.5l32-11.6l1,2.9l8.3-3L-198.7,386.9z M-234.7,407.6l-0.7-1.8l30.1-10.8l0.7,1.8L-234.7,407.6z M-201.7,390.1l1.8-0.7
			l5.6,15.3l-1.8,0.7L-201.7,390.1z"/>
		<path class="st0" d="M-223.9,425.9h4.5v-4h-5.1c-0.9-1-2.4-2.2-4.1-2.2c-1.7,0-3.2,1.2-4.1,2.2h-3.8v4h3.2c0.3,1,0.8,1.7,1.6,2.4
			l-21,26.6h2.1l20.5-26.1c0.4,0.2,0.7,0.1,1.7,0.2v25.9h0.4v-25.7c0.6-0.1,1.1-0.1,1.6-0.4l20.5,26.1h2.1l-21.2-27
			C-224.5,427.4-224.1,426.9-223.9,425.9z"/>
	</g>
</g>
<g id="Ebene_4">
</g>
<g id="Ebene_5">
</g>
<g id="Ebene_6">
</g>
</svg>
