<?xml version="1.0" encoding="utf-8"?>
<!-- Generator: Adobe Illustrator 19.1.0, SVG Export Plug-In . SVG Version: 6.00 Build 0)  -->
<svg version="1.1" xmlns="http://www.w3.org/2000/svg" xmlns:xlink="http://www.w3.org/1999/xlink" x="0px" y="0px"
	 viewBox="0 0 256.7 301.3" style="enable-background:new 0 0 256.7 301.3;" xml:space="preserve">
<style type="text/css">
	.st0{fill:#FFFFFF;}
	.st1{fill:#FFFFFF;stroke:#00B4A0;stroke-width:4;stroke-miterlimit:10;}
	.st2{fill:#3C4646;}
	.st3{fill:#00B4A0;}
	.st4{fill:#323C3C;}
	.st5{clip-path:url(#SVGID_2_);}
	.st6{fill:none;}
	.st7{fill:#ECECEC;}
	.st8{fill:none;stroke:#AEB8B8;stroke-miterlimit:10;}
	.st9{fill:#008571;}
	.st10{fill:#005448;}
	.st11{fill:#FFA573;}
	.st12{fill:#FF7832;}
	.st13{fill:#A53725;}
	.st14{clip-path:url(#SVGID_4_);}
	.st15{fill:#6D7777;}
	.st16{fill:#EAC192;}
	.st17{fill:#FDD39F;}
	.st18{fill:#141414;stroke:#221F1F;stroke-miterlimit:10;}
	.st19{fill:#325C80;}
	.st20{fill:none;stroke:#013C32;stroke-miterlimit:10;}
	.st21{fill:none;stroke:#5596E6;stroke-width:0.25;stroke-miterlimit:10;}
	.st22{fill:none;stroke:#013C32;stroke-width:0.1;stroke-miterlimit:10;}
	.st23{fill:#C8D2D2;}
	.st24{fill:#3C3232;}
	.st25{fill:#5CC3B7;}
	.st26{fill:#5A6464;}
	.st27{fill:#5596E6;}
	.st28{fill:#DFE9E9;}
	.st29{fill:#0F1212;}
	.st30{fill:#FFD4A0;}
	.st31{fill:none;stroke:#000000;stroke-width:0.5;stroke-miterlimit:10;}
	.st32{fill:none;stroke:#000000;stroke-miterlimit:10;}
	.st33{opacity:0.5;fill:#00B4A0;}
	.st34{opacity:0.5;fill:#003C32;}
	.st35{opacity:0.5;fill:#5A6464;}
	.st36{opacity:0.5;fill:#C8D2D2;}
	.st37{stroke:#000000;stroke-width:0.5;stroke-miterlimit:10;}
	.st38{stroke:#000000;stroke-miterlimit:10;}
	.st39{fill:none;stroke:#000000;stroke-width:0.1;stroke-miterlimit:10;}
	.st40{fill:#0D1111;}
	.st41{fill:#F0F2F4;}
	.st42{fill:none;stroke:#DFE9E9;stroke-miterlimit:10;}
	.st43{fill:#AEB8B8;}
	.st44{fill:#666666;}
	.st45{fill:#5AAAFA;}
	.st46{fill:#E3E6E8;stroke:#F2EEEE;stroke-miterlimit:10;}
	.st47{fill:none;stroke:#00B4A0;stroke-miterlimit:10;}
	.st48{clip-path:url(#SVGID_6_);}
	.st49{opacity:0.6;fill:#FFFFFF;}
	.st50{fill:none;stroke:#959F9F;stroke-width:2;stroke-miterlimit:10;}
	.st51{fill:#959F9F;}
	.st52{fill:#FFFFFF;stroke:#0D1111;stroke-miterlimit:10;}
	.st53{fill:#5A6464;stroke:#FFFFFF;stroke-miterlimit:10;}
	.st54{fill:#FFFFFF;stroke:#FFFFFF;stroke-miterlimit:10;}
	.st55{fill:none;stroke:#FFFFFF;stroke-width:2;stroke-miterlimit:10;}
	.st56{opacity:0.8;fill:#0D1111;}
	.st57{fill:#E0E0E0;}
	.st58{fill:#221F1F;}
	.st59{fill:#C8D2D1;}
	.st60{fill:#AEB7B7;}
	.st61{fill:none;stroke:#FFFFFF;stroke-miterlimit:10;}
	.st62{fill:#274B60;}
	.st63{fill:none;stroke:#274B60;stroke-miterlimit:10;}
	.st64{fill:none;stroke:#939E9D;stroke-width:0.5;stroke-miterlimit:10;}
	.st65{fill:#939E9D;}
	.st66{opacity:0.6;fill:#DFE9E9;}
	.st67{fill:#4178BE;}
	.st68{fill:#264A60;}
	.st69{fill:none;stroke:#00B4A0;stroke-width:6;stroke-miterlimit:10;}
	.st70{fill:none;stroke:#959F9F;stroke-miterlimit:10;}
	.st71{fill:#EBC393;}
	.st72{fill:#231F20;}
	.st73{fill:#152935;}
	.st74{fill:none;stroke:#264A60;stroke-miterlimit:10;}
	.st75{fill:none;stroke:#959F9F;stroke-width:0.5;stroke-miterlimit:10;}
	.st76{fill:#221F1F;stroke:#000000;stroke-miterlimit:10;}
	.st77{fill:#221F1F;stroke:#000000;stroke-width:0.5;stroke-miterlimit:10;}
	.st78{fill:#69A2D7;}
	.st79{fill:#3D4646;stroke:#3D4646;stroke-miterlimit:10;}
	.st80{fill:#C7D2D2;stroke:#FFFFFF;stroke-width:0.2;stroke-miterlimit:10;}
	.st81{fill:none;stroke:#323232;stroke-width:0.25;stroke-miterlimit:10;}
	.st82{fill:#231F20;stroke:#000000;stroke-width:0.5;stroke-miterlimit:10;}
	.st83{fill:#284C60;}
	.st84{fill:#121312;stroke:#231F20;stroke-width:0.5;stroke-miterlimit:10;}
	.st85{opacity:0.23;fill:#85CEC7;}
	.st86{opacity:0.23;fill:#015448;}
	.st87{opacity:0.23;fill:#008471;}
	.st88{opacity:0.23;fill:none;stroke:#000000;stroke-width:0.25;stroke-miterlimit:10;}
	.st89{opacity:0.23;fill:#B1DED6;stroke:#040303;stroke-width:0.2;stroke-miterlimit:10;}
	.st90{opacity:0.23;fill:#959F9F;}
	.st91{fill:#121312;}
	.st92{fill:#152935;stroke:#274B60;stroke-width:0.5;stroke-miterlimit:10;}
	.st93{fill:#141414;stroke:#221F1F;stroke-width:0.5;stroke-miterlimit:10;}
	.st94{fill:#323232;}
	.st95{fill:#DFDFDF;}
	.st96{opacity:0.5;fill:#DFDFDF;stroke:#000000;stroke-width:0.2;stroke-miterlimit:10;}
	.st97{opacity:0.5;fill:#5CC3B7;}
	.st98{fill:#3D4646;}
	.st99{fill:#7E7474;}
	.st100{fill:none;stroke:#274B60;stroke-width:0.25;stroke-miterlimit:10;}
	.st101{fill:#FFFFFF;stroke:#FFFFFF;stroke-width:3;stroke-miterlimit:10;}
	.st102{clip-path:url(#SVGID_14_);}
	.st103{opacity:0.5;fill:#0D1111;stroke:#152935;stroke-miterlimit:10;}
	.st104{fill:none;stroke:#C8D2D2;stroke-miterlimit:10;}
	.st105{fill:none;stroke:#000000;stroke-width:4;stroke-miterlimit:10;}
	.st106{clip-path:url(#SVGID_20_);}
	.st107{clip-path:url(#SVGID_22_);}
</style>
<g id="Ebene_2">
</g>
<g id="Ebene_3">
</g>
<g id="Ebene_1">
	<g>
		<polygon class="st16" points="70.9,81 68.7,69.2 63,67.2 60.2,71.8 60.2,82.4 67.9,86.4 		"/>
		<polyline class="st51" points="78.6,85.1 86.6,152.4 76.1,157.2 		"/>
		<polyline class="st17" points="63.3,68.6 64.9,73.8 70.1,73.8 70.8,64.5 73.7,62.4 70.3,47.9 59.7,53.3 59.7,67.1 60.7,76.9 		"/>
		<polygon class="st93" points="63.3,56.8 63.3,52.1 64.9,53.3 66.9,50.1 67.9,51.3 70.8,50.1 70.8,52.3 75.8,48.8 67.9,44.5 
			55.9,50.6 55.9,62.6 58.8,68.6 60.7,68.6 62.1,64.2 59.9,62.2 59.7,56.6 		"/>
		<polygon class="st0" points="58,79.9 61.1,71.8 66.3,79 67.6,86.3 68.9,78.5 71.6,74.3 72.9,80.5 75.8,146.5 54.1,145.7 		"/>
		<polygon class="st51" points="59.7,75.7 48.3,85.8 37.7,138.2 36.7,152.7 40,152.7 59.7,152.7 63.3,82.5 		"/>
		<polygon class="st51" points="72.7,79.9 72.7,152.7 78.9,152.7 78.9,85.8 		"/>
		<polygon class="st93" points="121.4,40.6 119.1,42.2 117.7,60.6 122.9,63.9 122.9,48.4 		"/>
		<polygon class="st16" points="197.8,48.3 204.2,37.1 211.2,38.5 208.2,54 200.8,63.7 		"/>
		<polygon class="st93" points="202.6,26.8 200.2,23 200.8,20.7 201.4,20.7 201.9,18.1 199.4,15.4 204.5,17.2 208.2,17.4 
			213.1,16.2 217.2,20 215.2,21.8 218.1,21.9 218.1,23.3 219.1,23.7 218.6,30.8 215.2,35.4 213.2,39.8 211.1,39.3 202.6,27.2 		"/>
		<polyline class="st17" points="209.2,48.4 211.2,38.5 213.2,35.9 214.5,31.7 214,29 211.9,29.3 210.3,33.6 210.6,28.5 211.9,27.5 
			211.9,23.2 207.2,20 202.8,20.6 200.8,28 197.5,31.7 199.5,34.9 200.1,40.6 201.5,43.6 203.6,45 207.9,42.4 		"/>
		<polygon class="st17" points="154.1,34.2 149.6,32.8 149.6,28.9 147.6,28.9 147.6,31.7 141.8,31.6 144.6,40.6 149.1,40.6 
			149.3,38.5 152.8,39.3 		"/>
		<polygon class="st17" points="103.1,90.6 100.4,116.8 111.1,112.8 111.1,90.6 		"/>
		<polygon class="st16" points="122.9,68.2 119.9,87.1 110.1,74.4 113.4,58 115.6,56 		"/>
		<polyline class="st17" points="111.1,69.7 112.1,63.9 108.4,48.4 112.1,43.4 117.7,43.4 120.1,45 120.1,51.1 122.9,58 119.6,58 
			119.9,61.7 117.7,62.3 113.3,61.3 		"/>
		<polygon class="st93" points="119.1,42.2 114.1,38.5 108.4,39.3 103.9,44.2 102.9,48.4 105.8,65.4 108.4,64.1 110.1,64.1 
			110.1,62.3 		"/>
		<polygon class="st25" points="104.6,112.8 107.1,94.1 100.4,91.8 103.8,73.6 108.9,66.9 111.6,65.4 113.4,68.1 118.4,80.6 
			119.9,67.1 119.9,63.9 125.9,67.4 135.1,79.3 131.6,84.1 135.1,96.3 		"/>
		<g>
			<polygon class="st94" points="236.9,118.5 239.4,176.2 243.3,178.9 246.3,176.4 244.8,121.7 			"/>
			<polygon class="st94" points="131,224.4 133.5,282 137.5,284.8 140.5,282.3 139,227.5 			"/>
			<polygon class="st94" points="23.3,173.2 25.7,230.9 29.7,233.6 32.7,231.1 31.2,176.3 			"/>
			<polygon class="st26" points="6,173.3 135.2,234.7 253,113.9 253,108 6,166.9 			"/>
			<polygon class="st15" points="6,166.9 153.8,79.3 253,108 135.1,226 			"/>
			<polygon class="st95" points="48.5,154.6 148.3,91.8 203.2,108 116.9,184.7 			"/>
		</g>
		<polygon class="st17" points="134.1,80.6 154.1,102.6 160.6,104.8 163,108 161.6,113.6 154.3,107.3 155.1,109.8 154.1,110.6 
			152,106.5 132.1,85.9 131.6,84.1 134.1,80.6 		"/>
		<polygon class="st59" points="200.5,51.5 200.8,64.2 203.2,52.7 206.2,52.2 217.2,64.1 197.5,87.1 189.9,53.1 		"/>
		<polygon class="st73" points="180.6,87.1 184.3,59.4 151.1,40.6 153.1,31.7 192,45 199.7,77.8 213.5,48.4 228.7,80.6 221.2,91.8 
			223.4,99.4 		"/>
		<polygon class="st60" points="194.2,41.6 200.8,51.1 195.7,57 191,43.9 194.2,41.6 		"/>
		<polygon class="st60" points="203.2,51.4 207,60 215.2,50.4 213,46.2 		"/>
		<polygon class="st0" points="218.7,83 217.6,75.7 220.6,79.3 		"/>
		<polygon class="st37" points="107.8,150.9 109.5,150.3 109.5,154.2 		"/>
		<polygon class="st17" points="95.6,142.4 102.5,151.1 111.2,153 110.6,144.5 105.1,141.6 109.1,141.8 109,139.6 93.9,139.6 		"/>
		<polygon class="st37" points="106.4,142.3 104.8,131.7 106,131.7 107.8,143 		"/>
		<line class="st96" x1="99.4" y1="167" x2="109.5" y2="155.9"/>
		<line class="st96" x1="103.7" y1="169.7" x2="125.9" y2="148.7"/>
		<line class="st96" x1="111.1" y1="171.3" x2="119.9" y2="157.2"/>
		<polygon class="st97" points="141.5,118.9 142.2,118.6 159.4,111.7 161.6,113.6 162.4,110.5 169.1,108 167.1,119.9 		"/>
		<polygon class="st97" points="152.6,125.9 154,137.4 165.8,135.1 164.5,127.1 		"/>
		<g>
			<polygon class="st93" points="194,275.9 196,279.9 188.8,281.6 177.7,270.7 185,268 			"/>
			<polygon class="st93" points="172.9,278.5 172.9,285.2 166.7,287.2 153.3,275.9 161,272.9 			"/>
			<polygon class="st98" points="196,199.9 196,277.9 187.3,277.9 184,218.6 178.7,217.3 172.9,281.9 164.7,281.9 164.7,195.6 			
				"/>
			<polygon class="st93" points="172.9,116.7 170,114.1 166.7,114.1 166.7,118.3 166.7,121.2 168,123.5 172.9,126 			"/>
			<polygon class="st11" points="197.2,185.7 197.9,191.1 197.9,202.6 164.3,205.1 163.2,197.6 151.2,182.7 165,145.2 168.8,127.6 
				169.9,119 176.3,114.1 182.1,118.3 186.5,131.6 192.8,140.3 209.1,161.5 			"/>
			<polygon class="st99" points="196.5,166.4 196,160.4 198.5,162.9 			"/>
			<polygon class="st99" points="165,184.1 166.7,171.3 162.7,178.4 			"/>
		</g>
		<line class="st22" x1="67.6" y1="85.9" x2="67.6" y2="100.8"/>
		<polyline class="st22" points="61.1,71.8 59.7,75.7 64.6,84.9 66.3,79.2 67.6,85.9 68.8,78.7 70.7,85 72.5,78.9 		"/>
		<polyline class="st81" points="57.7,77.5 60.7,81.4 57.9,136.1 		"/>
		<polyline class="st81" points="56.4,78.6 58.6,81.9 55.9,137.4 		"/>
		<polyline class="st51" points="54.1,112 95.2,145.9 100.4,138.2 54.1,91.8 		"/>
		<polyline class="st64" points="191,43.9 195.7,57 200.6,51.8 200.5,66 203.3,52.2 207,60 215.2,50.4 		"/>
		<polyline class="st100" points="187.5,43.4 191,66.7 194.5,66.6 192.5,69.3 199.4,84.2 208.7,71 207.1,68.7 210.7,69.9 
			216.6,55.2 		"/>
		<line class="st100" x1="199.3" y1="84.2" x2="199.3" y2="92.5"/>
		<line class="st100" x1="194.8" y1="74.2" x2="194.8" y2="91.3"/>
		<line class="st100" x1="195.9" y1="76.9" x2="195.9" y2="91.3"/>
		<line class="st100" x1="197.1" y1="79.3" x2="197.1" y2="91.8"/>
		<circle class="st62" cx="201.7" cy="86.8" r="0.8"/>
		<circle class="st62" cx="201.7" cy="91.3" r="0.8"/>
	</g>
</g>
<g id="Ebene_4">
</g>
<g id="Ebene_5">
</g>
<g id="Ebene_6">
</g>
</svg>
